<?xml version="1.0" encoding="UTF-8" standalone="no"?>
<!DOCTYPE svg PUBLIC "-//W3C//DTD SVG 1.1//EN"
 "http://www.w3.org/Graphics/SVG/1.1/DTD/svg11.dtd">
<!-- Generated by graphviz version 2.43.0 (0)
 -->
<!-- Title: %3 Pages: 1 -->
<svg width="1665pt" height="354pt"
 viewBox="0.00 0.00 1665.00 354.00" xmlns="http://www.w3.org/2000/svg" xmlns:xlink="http://www.w3.org/1999/xlink">
<g id="graph0" class="graph" transform="scale(1 1) rotate(0) translate(4 350)">
<title>%3</title>
<polygon fill="#ffffff" stroke="transparent" points="-4,4 -4,-350 1661,-350 1661,4 -4,4"/>
<!-- K30 -->
<g id="node1" class="node">
<title>K30</title>
<polygon fill="#ffffff" stroke="black" points="141,-206.5 0,-206.5 0,-45.5 141,-45.5 141,-206.5"/>
<polygon fill="none" stroke="black" points="0.5,-183 0.5,-206 141.5,-206 141.5,-183 0.5,-183"/>
<text text-anchor="start" x="58.5" y="-190.8" font-family="arial" font-size="14.00">K30</text>
<polygon fill="none" stroke="black" points="0.5,-160 0.5,-183 102.5,-183 102.5,-160 0.5,-160"/>
<text text-anchor="start" x="4.5" y="-167.8" font-family="arial" font-size="14.00">Screw Terminal</text>
<polygon fill="none" stroke="black" points="102.5,-160 102.5,-183 141.5,-183 141.5,-160 102.5,-160"/>
<text text-anchor="start" x="106.5" y="-167.8" font-family="arial" font-size="14.00">5&#45;pin</text>
<polygon fill="none" stroke="black" points="0.5,-137 0.5,-160 95.5,-160 95.5,-137 0.5,-137"/>
<text text-anchor="start" x="28.5" y="-144.8" font-family="arial" font-size="14.00">DVCC</text>
<polygon fill="none" stroke="black" points="95.5,-137 95.5,-160 141.5,-160 141.5,-137 95.5,-137"/>
<text text-anchor="start" x="114.5" y="-144.8" font-family="arial" font-size="14.00">1</text>
<polygon fill="none" stroke="black" points="0.5,-114 0.5,-137 95.5,-137 95.5,-114 0.5,-114"/>
<text text-anchor="start" x="38.5" y="-121.8" font-family="arial" font-size="14.00">G0</text>
<polygon fill="none" stroke="black" points="95.5,-114 95.5,-137 141.5,-137 141.5,-114 95.5,-114"/>
<text text-anchor="start" x="114.5" y="-121.8" font-family="arial" font-size="14.00">2</text>
<polygon fill="none" stroke="black" points="0.5,-91 0.5,-114 95.5,-114 95.5,-91 0.5,-91"/>
<text text-anchor="start" x="38" y="-98.8" font-family="arial" font-size="14.00">G+</text>
<polygon fill="none" stroke="black" points="95.5,-91 95.5,-114 141.5,-114 141.5,-91 95.5,-91"/>
<text text-anchor="start" x="114.5" y="-98.8" font-family="arial" font-size="14.00">3</text>
<polygon fill="none" stroke="black" points="0.5,-68 0.5,-91 95.5,-91 95.5,-68 0.5,-68"/>
<text text-anchor="start" x="20.5" y="-75.8" font-family="arial" font-size="14.00">I2C_SLC</text>
<polygon fill="none" stroke="black" points="95.5,-68 95.5,-91 141.5,-91 141.5,-68 95.5,-68"/>
<text text-anchor="start" x="114.5" y="-75.8" font-family="arial" font-size="14.00">4</text>
<polygon fill="none" stroke="black" points="0.5,-45 0.5,-68 95.5,-68 95.5,-45 0.5,-45"/>
<text text-anchor="start" x="19.5" y="-52.8" font-family="arial" font-size="14.00">I2C_SDA</text>
<polygon fill="none" stroke="black" points="95.5,-45 95.5,-68 141.5,-68 141.5,-45 95.5,-45"/>
<text text-anchor="start" x="114.5" y="-52.8" font-family="arial" font-size="14.00">5</text>
</g>
<!-- W1 -->
<g id="node5" class="node">
<title>W1</title>
<polygon fill="#ffffff" stroke="black" points="574,-261.5 285,-261.5 285,-52.5 574,-52.5 574,-261.5"/>
<polygon fill="none" stroke="black" points="285.5,-238 285.5,-261 574.5,-261 574.5,-238 285.5,-238"/>
<text text-anchor="start" x="419" y="-245.8" font-family="arial" font-size="14.00">W1</text>
<polygon fill="none" stroke="black" points="285.5,-215 285.5,-238 574.5,-238 574.5,-215 285.5,-215"/>
<text text-anchor="start" x="422.5" y="-222.8" font-family="arial" font-size="14.00">5x</text>
<text text-anchor="start" x="324.5" y="-201.8" font-family="arial" font-size="14.00"> </text>
<text text-anchor="start" x="287.5" y="-182.8" font-family="arial" font-size="14.00">K30:1:DVCC</text>
<text text-anchor="start" x="371.5" y="-182.8" font-family="arial" font-size="14.00"> &#160;&#160;&#160;&#160;1:YE &#160;&#160;&#160;</text>
<text text-anchor="start" x="441.5" y="-182.8" font-family="arial" font-size="14.00">LEVELSHIFTER:3:LV</text>
<polygon fill="#000000" stroke="transparent" points="285.5,-175 285.5,-177 574.5,-177 574.5,-175 285.5,-175"/>
<polygon fill="#ffff00" stroke="transparent" points="285.5,-173 285.5,-175 574.5,-175 574.5,-173 285.5,-173"/>
<polygon fill="#000000" stroke="transparent" points="285.5,-171 285.5,-173 574.5,-173 574.5,-171 285.5,-171"/>
<text text-anchor="start" x="370" y="-157.8" font-family="arial" font-size="14.00"> &#160;&#160;&#160;&#160;2:GN &#160;&#160;&#160;</text>
<polygon fill="#000000" stroke="transparent" points="285.5,-150 285.5,-152 574.5,-152 574.5,-150 285.5,-150"/>
<polygon fill="#00ff00" stroke="transparent" points="285.5,-148 285.5,-150 574.5,-150 574.5,-148 285.5,-148"/>
<polygon fill="#000000" stroke="transparent" points="285.5,-146 285.5,-148 574.5,-148 574.5,-146 285.5,-146"/>
<text text-anchor="start" x="287.5" y="-132.8" font-family="arial" font-size="14.00">K30:1:DVCC</text>
<text text-anchor="start" x="371" y="-132.8" font-family="arial" font-size="14.00"> &#160;&#160;&#160;&#160;3:RD &#160;&#160;&#160;</text>
<text text-anchor="start" x="451.5" y="-132.8" font-family="arial" font-size="14.00">K30_RELAY:4:NO</text>
<polygon fill="#000000" stroke="transparent" points="285.5,-125 285.5,-127 574.5,-127 574.5,-125 285.5,-125"/>
<polygon fill="#ff0000" stroke="transparent" points="285.5,-123 285.5,-125 574.5,-125 574.5,-123 285.5,-123"/>
<polygon fill="#000000" stroke="transparent" points="285.5,-121 285.5,-123 574.5,-123 574.5,-121 285.5,-121"/>
<text text-anchor="start" x="369.5" y="-107.8" font-family="arial" font-size="14.00"> &#160;&#160;&#160;&#160;4:OG &#160;&#160;&#160;</text>
<polygon fill="#000000" stroke="transparent" points="285.5,-100 285.5,-102 574.5,-102 574.5,-100 285.5,-100"/>
<polygon fill="#ff8000" stroke="transparent" points="285.5,-98 285.5,-100 574.5,-100 574.5,-98 285.5,-98"/>
<polygon fill="#000000" stroke="transparent" points="285.5,-96 285.5,-98 574.5,-98 574.5,-96 285.5,-96"/>
<text text-anchor="start" x="371.5" y="-82.8" font-family="arial" font-size="14.00"> &#160;&#160;&#160;&#160;5:BU &#160;&#160;&#160;</text>
<polygon fill="#000000" stroke="transparent" points="285.5,-75 285.5,-77 574.5,-77 574.5,-75 285.5,-75"/>
<polygon fill="#0066ff" stroke="transparent" points="285.5,-73 285.5,-75 574.5,-75 574.5,-73 285.5,-73"/>
<polygon fill="#000000" stroke="transparent" points="285.5,-71 285.5,-73 574.5,-73 574.5,-71 285.5,-71"/>
<text text-anchor="start" x="324.5" y="-57.8" font-family="arial" font-size="14.00"> </text>
</g>
<!-- K30&#45;&#45;W1 -->
<g id="edge1" class="edge">
<title>K30:e&#45;&#45;W1:w</title>
<path fill="none" stroke="#000000" stroke-width="2" d="M141,-147C207.7,-148.02 221.79,-173.02 285,-172"/>
<path fill="none" stroke="#ffff00" stroke-width="2" d="M141,-149C205.96,-149 220.04,-174 285,-174"/>
<path fill="none" stroke="#000000" stroke-width="2" d="M141,-151C204.21,-149.98 218.3,-174.98 285,-176"/>
</g>
<!-- K30&#45;&#45;W1 -->
<g id="edge3" class="edge">
<title>K30:e&#45;&#45;W1:w</title>
<path fill="none" stroke="#000000" stroke-width="2" d="M141,-147C204.21,-148.02 218.3,-123.02 285,-122"/>
<path fill="none" stroke="#ff0000" stroke-width="2" d="M141,-149C205.96,-149 220.04,-124 285,-124"/>
<path fill="none" stroke="#000000" stroke-width="2" d="M141,-151C207.7,-149.98 221.79,-124.98 285,-126"/>
</g>
<!-- LEVELSHIFTER -->
<g id="node2" class="node">
<title>LEVELSHIFTER</title>
<polygon fill="#ffffff" stroke="black" points="859,-346 718,-346 718,-208 859,-208 859,-346"/>
<polygon fill="none" stroke="black" points="718.5,-323 718.5,-346 859.5,-346 859.5,-323 718.5,-323"/>
<text text-anchor="start" x="739" y="-330.8" font-family="arial" font-size="14.00">LEVELSHIFTER</text>
<polygon fill="none" stroke="black" points="718.5,-300 718.5,-323 820.5,-323 820.5,-300 718.5,-300"/>
<text text-anchor="start" x="722.5" y="-307.8" font-family="arial" font-size="14.00">Screw Terminal</text>
<polygon fill="none" stroke="black" points="820.5,-300 820.5,-323 859.5,-323 859.5,-300 820.5,-300"/>
<text text-anchor="start" x="824.5" y="-307.8" font-family="arial" font-size="14.00">4&#45;pin</text>
<polygon fill="none" stroke="black" points="718.5,-277 718.5,-300 759.5,-300 759.5,-277 718.5,-277"/>
<text text-anchor="start" x="735" y="-284.8" font-family="arial" font-size="14.00">1</text>
<polygon fill="none" stroke="black" points="759.5,-277 759.5,-300 819.5,-300 819.5,-277 759.5,-277"/>
<text text-anchor="start" x="777.5" y="-284.8" font-family="arial" font-size="14.00">LV1</text>
<polygon fill="none" stroke="black" points="819.5,-277 819.5,-300 859.5,-300 859.5,-277 819.5,-277"/>
<text text-anchor="start" x="835.5" y="-284.8" font-family="arial" font-size="14.00">1</text>
<polygon fill="none" stroke="black" points="718.5,-254 718.5,-277 759.5,-277 759.5,-254 718.5,-254"/>
<text text-anchor="start" x="735" y="-261.8" font-family="arial" font-size="14.00">2</text>
<polygon fill="none" stroke="black" points="759.5,-254 759.5,-277 819.5,-277 819.5,-254 759.5,-254"/>
<text text-anchor="start" x="776" y="-261.8" font-family="arial" font-size="14.00">HV1</text>
<polygon fill="none" stroke="black" points="819.5,-254 819.5,-277 859.5,-277 859.5,-254 819.5,-254"/>
<text text-anchor="start" x="835.5" y="-261.8" font-family="arial" font-size="14.00">2</text>
<polygon fill="none" stroke="black" points="718.5,-231 718.5,-254 759.5,-254 759.5,-231 718.5,-231"/>
<text text-anchor="start" x="735" y="-238.8" font-family="arial" font-size="14.00">3</text>
<polygon fill="none" stroke="black" points="759.5,-231 759.5,-254 819.5,-254 819.5,-231 759.5,-231"/>
<text text-anchor="start" x="781.5" y="-238.8" font-family="arial" font-size="14.00">LV</text>
<polygon fill="none" stroke="black" points="819.5,-231 819.5,-254 859.5,-254 859.5,-231 819.5,-231"/>
<text text-anchor="start" x="835.5" y="-238.8" font-family="arial" font-size="14.00">3</text>
<polygon fill="none" stroke="black" points="718.5,-208 718.5,-231 759.5,-231 759.5,-208 718.5,-208"/>
<text text-anchor="start" x="735" y="-215.8" font-family="arial" font-size="14.00">4</text>
<polygon fill="none" stroke="black" points="759.5,-208 759.5,-231 819.5,-231 819.5,-208 759.5,-208"/>
<text text-anchor="start" x="780" y="-215.8" font-family="arial" font-size="14.00">HV</text>
<polygon fill="none" stroke="black" points="819.5,-208 819.5,-231 859.5,-231 859.5,-208 819.5,-208"/>
<text text-anchor="start" x="835.5" y="-215.8" font-family="arial" font-size="14.00">4</text>
</g>
<!-- W2 -->
<g id="node6" class="node">
<title>W2</title>
<polygon fill="#ffffff" stroke="black" points="1372,-306.5 1003,-306.5 1003,-97.5 1372,-97.5 1372,-306.5"/>
<polygon fill="none" stroke="black" points="1003.5,-283 1003.5,-306 1372.5,-306 1372.5,-283 1003.5,-283"/>
<text text-anchor="start" x="1177" y="-290.8" font-family="arial" font-size="14.00">W2</text>
<polygon fill="none" stroke="black" points="1003.5,-260 1003.5,-283 1372.5,-283 1372.5,-260 1003.5,-260"/>
<text text-anchor="start" x="1180.5" y="-267.8" font-family="arial" font-size="14.00">5x</text>
<text text-anchor="start" x="1070.5" y="-246.8" font-family="arial" font-size="14.00"> </text>
<text text-anchor="start" x="1005.5" y="-227.8" font-family="arial" font-size="14.00">LEVELSHIFTER:4:HV</text>
<text text-anchor="start" x="1145.5" y="-227.8" font-family="arial" font-size="14.00"> &#160;&#160;&#160;&#160;1:YE &#160;&#160;&#160;</text>
<text text-anchor="start" x="1215.5" y="-227.8" font-family="arial" font-size="14.00">CHAMBER_PCB:1:5VDC</text>
<polygon fill="#000000" stroke="transparent" points="1003.5,-220 1003.5,-222 1372.5,-222 1372.5,-220 1003.5,-220"/>
<polygon fill="#ffff00" stroke="transparent" points="1003.5,-218 1003.5,-220 1372.5,-220 1372.5,-218 1003.5,-218"/>
<polygon fill="#000000" stroke="transparent" points="1003.5,-216 1003.5,-218 1372.5,-218 1372.5,-216 1003.5,-216"/>
<text text-anchor="start" x="1144" y="-202.8" font-family="arial" font-size="14.00"> &#160;&#160;&#160;&#160;2:GN &#160;&#160;&#160;</text>
<polygon fill="#000000" stroke="transparent" points="1003.5,-195 1003.5,-197 1372.5,-197 1372.5,-195 1003.5,-195"/>
<polygon fill="#00ff00" stroke="transparent" points="1003.5,-193 1003.5,-195 1372.5,-195 1372.5,-193 1003.5,-193"/>
<polygon fill="#000000" stroke="transparent" points="1003.5,-191 1003.5,-193 1372.5,-193 1372.5,-191 1003.5,-191"/>
<text text-anchor="start" x="1145" y="-177.8" font-family="arial" font-size="14.00"> &#160;&#160;&#160;&#160;3:RD &#160;&#160;&#160;</text>
<polygon fill="#000000" stroke="transparent" points="1003.5,-170 1003.5,-172 1372.5,-172 1372.5,-170 1003.5,-170"/>
<polygon fill="#ff0000" stroke="transparent" points="1003.5,-168 1003.5,-170 1372.5,-170 1372.5,-168 1003.5,-168"/>
<polygon fill="#000000" stroke="transparent" points="1003.5,-166 1003.5,-168 1372.5,-168 1372.5,-166 1003.5,-166"/>
<text text-anchor="start" x="1143.5" y="-152.8" font-family="arial" font-size="14.00"> &#160;&#160;&#160;&#160;4:OG &#160;&#160;&#160;</text>
<polygon fill="#000000" stroke="transparent" points="1003.5,-145 1003.5,-147 1372.5,-147 1372.5,-145 1003.5,-145"/>
<polygon fill="#ff8000" stroke="transparent" points="1003.5,-143 1003.5,-145 1372.5,-145 1372.5,-143 1003.5,-143"/>
<polygon fill="#000000" stroke="transparent" points="1003.5,-141 1003.5,-143 1372.5,-143 1372.5,-141 1003.5,-141"/>
<text text-anchor="start" x="1145.5" y="-127.8" font-family="arial" font-size="14.00"> &#160;&#160;&#160;&#160;5:BU &#160;&#160;&#160;</text>
<polygon fill="#000000" stroke="transparent" points="1003.5,-120 1003.5,-122 1372.5,-122 1372.5,-120 1003.5,-120"/>
<polygon fill="#0066ff" stroke="transparent" points="1003.5,-118 1003.5,-120 1372.5,-120 1372.5,-118 1003.5,-118"/>
<polygon fill="#000000" stroke="transparent" points="1003.5,-116 1003.5,-118 1372.5,-118 1372.5,-116 1003.5,-116"/>
<text text-anchor="start" x="1070.5" y="-102.8" font-family="arial" font-size="14.00"> </text>
</g>
<!-- LEVELSHIFTER&#45;&#45;W2 -->
<g id="edge5" class="edge">
<title>LEVELSHIFTER:e&#45;&#45;W2:w</title>
<path fill="none" stroke="#000000" stroke-width="2" d="M859,-217C923,-217 939,-217 1003,-217"/>
<path fill="none" stroke="#ffff00" stroke-width="2" d="M859,-219C923,-219 939,-219 1003,-219"/>
<path fill="none" stroke="#000000" stroke-width="2" d="M859,-221C923,-221 939,-221 1003,-221"/>
</g>
<!-- CHAMBER_PCB -->
<g id="node3" class="node">
<title>CHAMBER_PCB</title>
<polygon fill="#ffffff" stroke="black" points="1657,-277.5 1516,-277.5 1516,-162.5 1657,-162.5 1657,-277.5"/>
<polygon fill="none" stroke="black" points="1516.5,-254 1516.5,-277 1657.5,-277 1657.5,-254 1516.5,-254"/>
<text text-anchor="start" x="1535" y="-261.8" font-family="arial" font-size="14.00">CHAMBER_PCB</text>
<polygon fill="none" stroke="black" points="1516.5,-231 1516.5,-254 1618.5,-254 1618.5,-231 1516.5,-231"/>
<text text-anchor="start" x="1520.5" y="-238.8" font-family="arial" font-size="14.00">Screw Terminal</text>
<polygon fill="none" stroke="black" points="1618.5,-231 1618.5,-254 1657.5,-254 1657.5,-231 1618.5,-231"/>
<text text-anchor="start" x="1622.5" y="-238.8" font-family="arial" font-size="14.00">3&#45;pin</text>
<polygon fill="none" stroke="black" points="1516.5,-208 1516.5,-231 1572.5,-231 1572.5,-208 1516.5,-208"/>
<text text-anchor="start" x="1540.5" y="-215.8" font-family="arial" font-size="14.00">1</text>
<polygon fill="none" stroke="black" points="1572.5,-208 1572.5,-231 1657.5,-231 1657.5,-208 1572.5,-208"/>
<text text-anchor="start" x="1596.5" y="-215.8" font-family="arial" font-size="14.00">5VDC</text>
<polygon fill="none" stroke="black" points="1516.5,-185 1516.5,-208 1572.5,-208 1572.5,-185 1516.5,-185"/>
<text text-anchor="start" x="1540.5" y="-192.8" font-family="arial" font-size="14.00">2</text>
<polygon fill="none" stroke="black" points="1572.5,-185 1572.5,-208 1657.5,-208 1657.5,-185 1572.5,-185"/>
<text text-anchor="start" x="1601" y="-192.8" font-family="arial" font-size="14.00">SDA</text>
<polygon fill="none" stroke="black" points="1516.5,-162 1516.5,-185 1572.5,-185 1572.5,-162 1516.5,-162"/>
<text text-anchor="start" x="1540.5" y="-169.8" font-family="arial" font-size="14.00">3</text>
<polygon fill="none" stroke="black" points="1572.5,-162 1572.5,-185 1657.5,-185 1657.5,-162 1572.5,-162"/>
<text text-anchor="start" x="1601.5" y="-169.8" font-family="arial" font-size="14.00">SCL</text>
</g>
<!-- K30_RELAY -->
<g id="node4" class="node">
<title>K30_RELAY</title>
<polygon fill="#ffffff" stroke="black" points="859,-184 718,-184 718,0 859,0 859,-184"/>
<polygon fill="none" stroke="black" points="718.5,-161 718.5,-184 859.5,-184 859.5,-161 718.5,-161"/>
<text text-anchor="start" x="751" y="-168.8" font-family="arial" font-size="14.00">K30_RELAY</text>
<polygon fill="none" stroke="black" points="718.5,-138 718.5,-161 820.5,-161 820.5,-138 718.5,-138"/>
<text text-anchor="start" x="722.5" y="-145.8" font-family="arial" font-size="14.00">Screw Terminal</text>
<polygon fill="none" stroke="black" points="820.5,-138 820.5,-161 859.5,-161 859.5,-138 820.5,-138"/>
<text text-anchor="start" x="824.5" y="-145.8" font-family="arial" font-size="14.00">6&#45;pin</text>
<polygon fill="none" stroke="black" points="718.5,-115 718.5,-138 767.5,-138 767.5,-115 718.5,-115"/>
<text text-anchor="start" x="739" y="-122.8" font-family="arial" font-size="14.00">1</text>
<polygon fill="none" stroke="black" points="767.5,-115 767.5,-138 859.5,-138 859.5,-115 767.5,-115"/>
<text text-anchor="start" x="795" y="-122.8" font-family="arial" font-size="14.00">5VDC</text>
<polygon fill="none" stroke="black" points="718.5,-92 718.5,-115 767.5,-115 767.5,-92 718.5,-92"/>
<text text-anchor="start" x="739" y="-99.8" font-family="arial" font-size="14.00">2</text>
<polygon fill="none" stroke="black" points="767.5,-92 767.5,-115 859.5,-115 859.5,-92 767.5,-92"/>
<text text-anchor="start" x="798" y="-99.8" font-family="arial" font-size="14.00">GND</text>
<polygon fill="none" stroke="black" points="718.5,-69 718.5,-92 767.5,-92 767.5,-69 718.5,-69"/>
<text text-anchor="start" x="739" y="-76.8" font-family="arial" font-size="14.00">3</text>
<polygon fill="none" stroke="black" points="767.5,-69 767.5,-92 859.5,-92 859.5,-69 767.5,-69"/>
<text text-anchor="start" x="788" y="-76.8" font-family="arial" font-size="14.00">SIGNAL</text>
<polygon fill="none" stroke="black" points="718.5,-46 718.5,-69 767.5,-69 767.5,-46 718.5,-46"/>
<text text-anchor="start" x="739" y="-53.8" font-family="arial" font-size="14.00">4</text>
<polygon fill="none" stroke="black" points="767.5,-46 767.5,-69 859.5,-69 859.5,-46 767.5,-46"/>
<text text-anchor="start" x="802.5" y="-53.8" font-family="arial" font-size="14.00">NO</text>
<polygon fill="none" stroke="black" points="718.5,-23 718.5,-46 767.5,-46 767.5,-23 718.5,-23"/>
<text text-anchor="start" x="739" y="-30.8" font-family="arial" font-size="14.00">5</text>
<polygon fill="none" stroke="black" points="767.5,-23 767.5,-46 859.5,-46 859.5,-23 767.5,-23"/>
<text text-anchor="start" x="796.5" y="-30.8" font-family="arial" font-size="14.00">COM</text>
<polygon fill="none" stroke="black" points="718.5,0 718.5,-23 767.5,-23 767.5,0 718.5,0"/>
<text text-anchor="start" x="739" y="-7.8" font-family="arial" font-size="14.00">6</text>
<polygon fill="none" stroke="black" points="767.5,0 767.5,-23 859.5,-23 859.5,0 767.5,0"/>
<text text-anchor="start" x="803.5" y="-7.8" font-family="arial" font-size="14.00">NC</text>
</g>
<!-- W1&#45;&#45;LEVELSHIFTER -->
<g id="edge2" class="edge">
<title>W1:e&#45;&#45;LEVELSHIFTER:w</title>
<path fill="none" stroke="#000000" stroke-width="2" d="M574,-172C646.78,-173.93 649.22,-241.93 718,-240"/>
<path fill="none" stroke="#ffff00" stroke-width="2" d="M574,-174C644.78,-174 647.22,-242 718,-242"/>
<path fill="none" stroke="#000000" stroke-width="2" d="M574,-176C642.78,-174.07 645.22,-242.07 718,-244"/>
</g>
<!-- W1&#45;&#45;K30_RELAY -->
<g id="edge4" class="edge">
<title>W1:e&#45;&#45;K30_RELAY:w</title>
<path fill="none" stroke="#000000" stroke-width="2" d="M574,-122C642.59,-123.92 645.41,-56.92 718,-55"/>
<path fill="none" stroke="#ff0000" stroke-width="2" d="M574,-124C644.59,-124 647.41,-57 718,-57"/>
<path fill="none" stroke="#000000" stroke-width="2" d="M574,-126C646.59,-124.08 649.41,-57.08 718,-59"/>
</g>
<!-- W2&#45;&#45;CHAMBER_PCB -->
<g id="edge6" class="edge">
<title>W2:e&#45;&#45;CHAMBER_PCB:w</title>
<path fill="none" stroke="#000000" stroke-width="2" d="M1372,-217C1436,-217 1452,-217 1516,-217"/>
<path fill="none" stroke="#ffff00" stroke-width="2" d="M1372,-219C1436,-219 1452,-219 1516,-219"/>
<path fill="none" stroke="#000000" stroke-width="2" d="M1372,-221C1436,-221 1452,-221 1516,-221"/>
</g>
</g>
</svg>
